<?xml version="1.0" encoding="UTF-8"?>
<!DOCTYPE svg PUBLIC "-//W3C//DTD SVG 1.1//EN" "http://www.w3.org/Graphics/SVG/1.1/DTD/svg11.dtd">
<!-- Creator: CorelDRAW 2020 (64-Bit) -->
<svg xmlns="http://www.w3.org/2000/svg" xml:space="preserve" width="11.6929in" height="8.26772in" version="1.1" style="shape-rendering:geometricPrecision; text-rendering:geometricPrecision; image-rendering:optimizeQuality; fill-rule:evenodd; clip-rule:evenodd"
viewBox="0 0 11692.91 8267.72"
 xmlns:xlink="http://www.w3.org/1999/xlink"
 xmlns:xodm="http://www.corel.com/coreldraw/odm/2003">
 <defs>
  <style type="text/css">
   <![CDATA[
    .fil0 {fill:#96989A}
   ]]>
  </style>
 </defs>
 <g id="Layer_x0020_1">
  <metadata id="CorelCorpID_0Corel-Layer"/>
  <g id="_2268342728432">
   <path class="fil0" d="M1627.74 1366.3c-0.06,-0.26 0,-0.46 0.03,-0.73 0.04,-0.29 0.13,-1.16 0.3,-1.41 -0.04,-0.37 0.16,-0.92 0.28,-1.25 0.16,-0.61 0.79,-2.48 1.13,-2.78 0.04,-0.38 0.88,-1.71 1.11,-2.07 0.23,-0.36 0.41,-0.6 0.66,-0.94l0.51 -0.69c0.14,-0.15 0,-0.08 0.15,-0.11 0.13,-0.27 0.67,-0.93 0.98,-1.12 0.04,-0.11 -0.07,0.02 0.08,-0.15 0.12,-0.13 0.06,-0.06 0.14,-0.09 0.12,-0.25 0.31,-0.39 0.52,-0.59 0.21,-0.2 0.35,-0.35 0.61,-0.52 0.03,-0.18 0.12,-0.2 0.27,-0.23 0.11,-0.19 0.06,-0.12 0.23,-0.27 0.12,-0.11 0.15,-0.13 0.26,-0.21 0.23,-0.19 0.31,-0.27 0.57,-0.42 0.09,-0.2 0.96,-0.76 1.21,-0.93 0.34,-0.22 0.91,-0.67 1.3,-0.81l0.26 -0.15c0.14,-0.15 0.92,-0.59 1.17,-0.62 0.15,-0.17 0.39,-0.26 0.64,-0.38 0.57,-0.28 1.59,-0.77 2.15,-0.9 0.19,-0.14 0.9,-0.38 1.15,-0.38 0.13,-0.11 0.11,-0.09 0.31,-0.16 0.11,-0.04 0.24,-0.07 0.36,-0.11 0.62,-0.19 1.58,-0.48 2.17,-0.56 0.28,-0.11 0.75,-0.22 1.06,-0.18 0.02,-0.01 0.04,-0.02 0.05,-0.03l0.72 -0.16c0.29,-0.05 0.55,-0.09 0.83,-0.11 0.35,-0.08 0.85,-0.15 1.22,-0.09 0.34,-0.24 3.49,-0.18 4.11,-0.13l1.33 0.09 1.38 0.17c0.15,0.05 0.08,0.02 0.16,0.07 0.31,-0.06 0.75,0.06 1.05,0.13 0.25,0.02 1.25,0.18 1.47,0.35 0.38,-0.04 2.31,0.54 2.56,0.69 0.58,0.11 2.33,0.8 2.71,1.06 0.47,0.17 1.06,0.47 1.5,0.72l1.28 0.77c0.59,0.22 1.93,1.24 2.4,1.6 0.52,0.4 2.18,1.85 2.6,2.32l1.35 1.58c0.33,0.43 1.42,1.86 1.57,2.4 0.21,0.17 1.15,2.06 1.17,2.43 0.38,0.41 0.86,2.36 0.95,3.04 0.08,0.26 0.13,0.55 0.11,0.83 0.23,0.27 0.23,1.64 0.24,2.09l-0.01 1.2c-0.01,0.41 0.04,1.22 -0.17,1.51 0.03,0.28 -0.02,0.56 -0.08,0.82 -0.04,0.31 -0.19,1.24 -0.37,1.49 0.06,0.56 -0.64,1.95 -0.81,2.54 -0.3,0.64 -1.12,2.45 -1.53,2.74 -0.04,0.24 -0.13,0.29 -0.3,0.54 -0.07,0.09 -0.09,0.13 -0.17,0.24 -0.09,0.12 -0.05,0.11 -0.17,0.16 -0.1,0.25 -0.07,0.26 -0.3,0.39 -0.1,0.51 -3.15,3.57 -3.67,3.79 -0.07,0.13 0.04,0.08 -0.19,0.15l-0.24 0.24c-0.23,0.19 -0.63,0.54 -0.87,0.58 -0.19,0.32 -2.33,1.6 -2.84,1.77 -0.13,0.19 -2.4,1.23 -2.73,1.24 -0.11,0.1 -0,0.03 -0.17,0.12 -0.39,0.21 -2.28,0.78 -2.62,0.85 -0.19,0.11 -0.77,0.24 -1.01,0.22 -0.5,0.41 -4.59,0.79 -5.56,0.81l-1.36 0.05c-0.72,-0.01 -3.83,-0.04 -4.23,-0.33 -0.55,0.06 -1.91,-0.27 -2.5,-0.41l-1.32 -0.33c-0.5,-0.13 -2.39,-0.71 -2.61,-0.89 -0.58,-0.13 -0.82,-0.03 -1.44,0.01 -0.59,0.06 -1.05,0.02 -1.48,0.3 -0.23,0.15 -0.91,0.61 -1.11,0.65 -0.01,0.02 -0.03,0.03 -0.04,0.04l-2.23 1.45c-0.36,0.23 -1.97,1.29 -2.26,1.39 0.04,-0.67 0.19,-1.43 0.28,-2.1l0.33 -2.04c-0.06,-0.28 0.03,-0.77 0.09,-1.02 0.03,-0.37 0.08,-1.26 0.24,-1.48l-0.37 -1.21c-0.44,-0.98 -0.1,-0.87 -0.78,-1.54l-1.1 -1.17c-0.46,-0.51 -1.72,-2.02 -1.96,-2.69 -0.25,-0.15 -1.21,-2.1 -1.37,-2.57 -0.31,-0.5 -0.74,-1.97 -0.93,-2.67 -0.1,-0.37 -0.27,-0.89 -0.21,-1.26 -0.17,-0.23 -0.23,-1.17 -0.25,-1.44l-0.01 -0.59c-0.17,-0.25 -0.07,-1.63 -0.05,-2.07l0.11 -0.57zm19.74 -21.4c-0.35,0.09 -0.8,0.2 -1.15,0.17 -0.19,0.16 -1.32,0.37 -1.65,0.42l-2.31 0.66c-0.19,0.16 -1.38,0.57 -1.55,0.61 -0.07,0.06 -2.52,1.17 -2.6,1.18 -0.17,0.22 -0.46,0.3 -0.71,0.45 -0.26,0.15 -0.42,0.24 -0.67,0.38 -0.48,0.28 -0.96,0.65 -1.4,0.85l0 -0.02c-0.07,0.09 -0.02,0.04 -0.11,0.12l-1.2 0.83c-0.07,0.16 -0.06,0.11 -0.2,0.22 -0.02,0.01 -0.14,0.09 -0.16,0.1 -0.15,0.08 0.07,0.01 -0.13,0.06 -0.09,0.15 -0.18,0.22 -0.34,0.35 -0.15,0.11 -0.19,0.14 -0.33,0.27 -0.23,0.22 -0.4,0.36 -0.66,0.61 -0.45,0.43 -0.81,0.76 -1.24,1.22 -0.22,0.24 -0.4,0.42 -0.61,0.66l-1.65 2.03c-0.03,0.18 0.15,0.04 -0.1,0.17 -0.12,0.35 -0.61,1.02 -0.83,1.4 -0.15,0.27 -0.65,1.29 -0.81,1.4 -0.03,0.3 -0.6,1.47 -0.76,1.9 -0.78,2.13 -1.2,4.26 -1.26,6.59 -0.06,2.26 0.32,4.69 1.04,6.81 0.21,0.61 0.57,1.34 0.72,1.9l0.65 1.31c0.37,0.74 0.76,1.36 1.19,2 0.17,0.25 1.3,1.73 1.34,1.9 0.25,0.13 0.15,0.06 0.24,0.28l0.97 1.08c0.22,0.11 0.19,0.11 0.35,0.29 0.11,0.11 0.16,0.15 0.27,0.26 0.34,0.31 0.23,0.37 0.17,0.93l-0.54 3.94c-0.05,0.42 -0.05,1.16 -0.24,1.46 0.05,0.32 -0.04,0.75 -0.1,1.07 -0.04,0.44 -0.09,1.55 -0.3,1.86 0.09,0.56 -0.34,2.5 -0.37,3.26l0.73 -0.46c0.19,-0.12 0.09,-0.08 0.27,-0.11 0.16,-0.23 1.01,-0.72 1.31,-0.91 0.31,-0.19 1.15,-0.79 1.44,-0.83 0.12,-0.23 1.14,-0.83 1.34,-0.89 0.19,-0.26 0.91,-0.62 1.25,-0.83 0.23,-0.15 0.43,-0.27 0.65,-0.42 0.22,-0.15 0.43,-0.33 0.68,-0.37 0.13,-0.19 0.11,-0.16 0.35,-0.25 0.05,-0.07 -0.01,-0.02 0.11,-0.11 0,0 0.11,-0.07 0.12,-0.07 0.1,-0.07 0.13,-0.08 0.25,-0.16 0.19,-0.13 0.33,-0.26 0.53,-0.29l0.11 -0.12c0.01,-0.01 0.03,-0.02 0.04,-0.03 0.07,-0.05 0.05,-0.04 0.12,-0.08 0.11,-0.07 0.17,-0.11 0.28,-0.18 0.66,-0.43 0.78,-0.63 1.2,-0.48 0.21,0.07 0.46,0.15 0.61,0.3l0.37 0.09c0.33,0.08 1.34,0.35 1.52,0.52 0.3,-0.01 0.91,0.19 1.16,0.26l2.65 0.56 0.97 0.14 1.7 0.17 1.35 0.08 2.2 0.01 0.53 -0.02 1.52 -0.1c0.28,-0.04 0.59,-0.09 0.87,-0.05 0.27,-0.17 1.31,-0.24 1.72,-0.28l2.33 -0.45c0.01,-0.01 0.03,-0.02 0.04,-0.03l1.62 -0.47c0.21,-0.12 0.74,-0.29 1,-0.3l3.13 -1.31c0.09,-0.14 0.98,-0.51 1.21,-0.64 0.23,-0.13 1.06,-0.63 1.24,-0.65l0.07 -0.08c0.01,-0.01 0.03,-0.03 0.04,-0.04l0.2 -0.14c1.97,-1.22 2.24,-1.59 3.92,-2.94l1.57 -1.55c1.01,-1.17 1.68,-1.95 2.52,-3.27 0.04,-0.06 0.06,-0.09 0.11,-0.16 0.08,-0.1 0.02,-0.04 0.11,-0.12 0.02,-0.15 0.83,-1.55 1,-1.89 1.83,-3.72 2.52,-7.94 1.87,-12.1 -0.12,-0.8 -0.29,-1.56 -0.51,-2.33 -0.13,-0.46 -0.69,-1.89 -0.68,-2.15 -0.01,-0.02 -0.03,-0.04 -0.03,-0.04 -0.01,-0.01 -0.02,-0.03 -0.03,-0.04 -0.01,-0.02 -0.05,-0.07 -0.06,-0.09 -0.02,-0.05 -0.06,-0.13 -0.09,-0.19l-0.48 -1.11c-0.05,-0.04 -1,-1.74 -1.15,-1.98 -0.23,-0.37 -0.39,-0.61 -0.64,-0.96 -0.19,-0.27 -0.58,-0.69 -0.63,-0.94 -0.22,-0.12 -0.26,-0.23 -0.4,-0.44 -0.12,-0.11 -0.25,-0.27 -0.4,-0.44 -0.13,-0.15 -0.26,-0.29 -0.32,-0.46 -0.27,-0.11 -0.48,-0.38 -0.59,-0.6l-0.69 -0.69c-0.21,-0.1 -0.24,-0.14 -0.4,-0.3 -0.06,-0.07 -0.12,-0.12 -0.16,-0.17 -0.12,-0.14 -0.04,-0.02 -0.13,-0.17 -0.14,-0.04 -0.09,-0.01 -0.24,-0.13 -0.09,-0.07 -0.12,-0.13 -0.2,-0.2 -0.19,-0.17 -0.26,-0.14 -0.39,-0.37 -0.19,-0.07 -0.17,-0.03 -0.38,-0.27l-0.06 -0.09c-0.19,-0.04 -0.81,-0.54 -0.97,-0.66l-2.89 -1.84c-0.47,-0.15 -0.97,-0.49 -1.48,-0.71 -0.46,-0.2 -1.03,-0.44 -1.47,-0.66l-1.24 -0.5 -2.66 -0.81c-0.17,-0.07 -0.06,-0.02 -0.14,-0.07 -0.32,0.02 -0.89,-0.13 -1.2,-0.24 -0.32,-0.04 -1.59,-0.22 -1.78,-0.36 -0.37,0.04 -0.68,-0.1 -0.99,-0.07 -1.28,-0.27 -3.44,-0.28 -4.82,-0.26 -1.63,0.04 -3.04,0.25 -4.59,0.42z"/>
   <path class="fil0" d="M1664.95 1363.94c-0.12,0.18 -0.32,0.29 -0.48,0.4 -0.16,0.15 -0.3,0.29 -0.45,0.47 -0.14,0.17 -0.23,0.36 -0.35,0.48 -0.04,0.12 -0.06,0.19 -0.11,0.28 -0.01,0.02 -0.02,0.04 -0.02,0.05l-0.1 0.13 -0.12 0.7c-0.02,0.38 -0.03,0.65 0.04,1.03 0.06,0.33 0.19,0.53 0.2,0.8 0.16,0.1 0.37,0.51 0.5,0.68 0.2,0.27 0.51,0.41 0.64,0.65 0.15,0.02 0.09,-0.04 0.18,0.09 0.81,0.28 0.93,0.44 1.96,0.42l0.84 -0.13c0.22,-0.2 0.96,-0.41 1.54,-1.23 0.13,-0.19 0.2,-0.43 0.38,-0.56 0.01,-0.33 0.2,-0.75 0.22,-1.22 -0,-0.67 -0.13,-0.92 -0.26,-1.46 -0.25,-0.23 -0.26,-0.74 -1.17,-1.36 -0.14,-0.09 -0.39,-0.19 -0.5,-0.31 -0.54,-0.15 -0.8,-0.26 -1.44,-0.26 -0.71,0.02 -1.12,0.32 -1.52,0.35z"/>
   <path class="fil0" d="M1639.5 1363.79c-0.13,0.11 -0.37,0.18 -0.56,0.3 -0.2,0.13 -0.35,0.26 -0.52,0.41 -0.4,0.39 -0.46,0.56 -0.76,1.09 -0.19,0.71 -0.26,0.82 -0.22,1.65l0.17 0.86 0.22 0.34c0.7,1.24 1.5,1.28 1.78,1.56l0.74 0.11c1.03,0.04 1.09,-0.13 1.9,-0.35 0.13,-0.15 0.12,-0.14 0.3,-0.16l0.1 -0.13c0.01,-0.01 0.02,-0.03 0.03,-0.04 0.29,-0.3 0.22,-0.11 0.65,-0.68 0.04,-0.06 0.06,-0.09 0.12,-0.16 0.07,-0.08 0.05,-0.06 0.12,-0.12l0.09 -0.22c0.21,-0.74 0.32,-0.91 0.27,-1.78l-0.14 -0.8c-0.15,-0.13 -0.22,-0.37 -0.33,-0.54 -0.45,-0.74 -1.16,-1.08 -1.3,-1.25 -0.34,-0.03 -0.74,-0.25 -1.28,-0.29 -0.6,-0.02 -0.85,0.06 -1.39,0.2z"/>
   <path class="fil0" d="M1652.92 1363.66c-0.57,0.17 -1.03,0.39 -1.41,0.69 -0.2,0.16 -0.37,0.37 -0.51,0.56 -0.1,0.14 -0.35,0.57 -0.39,0.6 -0.3,1.17 -0.42,2 0.21,3.04 0.35,0.57 0.89,1.04 1.49,1.3l0.69 0.27 0.32 -0c2.19,0.05 3.66,-1.43 3.54,-3.67 -0.09,-0.46 -0.21,-0.85 -0.41,-1.2 -0.22,-0.39 -0.54,-0.64 -0.72,-0.91 -0.16,-0.07 -0.03,0.02 -0.19,-0.11 -0.09,-0.07 -0.04,-0.04 -0.1,-0.13 -0.01,-0 -0.98,-0.38 -1.12,-0.44 -0.59,-0.07 -0.82,-0.08 -1.41,0z"/>
  </g>
  <g id="_2268342725984">
   <path class="fil0" d="M6084.89 4607.46c-102.03,6.1 -224.4,-87.99 -282.91,-132.66l-167.91 -138.92c-128.2,-120.33 -604.09,-569.43 -586.19,-737.71 10.2,-96.07 476.13,-259.78 58.98,-800.11 -87.81,-113.76 -270.2,-340.05 -522.27,-253.5 -106.42,36.56 -178.86,105.8 -238.91,164.41 -54.52,53.26 -153.4,147.61 -184.72,218.74 -159.63,362.68 160.37,910.68 343.71,1198.52 53.55,84.02 276.59,374.99 363.19,451.72 75.26,66.7 158.06,171.63 261.24,255.28 20.58,16.68 28.72,30.03 49.81,46.71 194.06,153.32 350.61,289.75 597.59,418.98 235.87,123.41 661.41,312.86 946.85,199.3 100.26,-39.91 158.86,-119.65 221.06,-182.35 155.04,-156.33 271.13,-328.94 135.54,-553.79 -77.01,-127.7 -280.9,-291.39 -454.35,-360.68 -230.32,-91.98 -408.41,37.53 -540.72,206.08z"/>
   <path class="fil0" d="M7455 3096.17c-71.84,-149.3 -201.22,-358.8 -315.7,-475.27 -20.38,-20.74 -39.1,-35.22 -58.36,-54.41 -158.35,-157.84 -315.56,-273.95 -533.64,-369.78 -323.22,-141.98 -567.36,-171.79 -914.57,-151.72l6.63 220.39c309.37,-6.35 494.27,3.13 760.04,111.39 519.05,211.45 889.18,671.83 978.99,1223.47 37.46,230.21 6.43,310.44 18.19,417.29 33.22,8.61 190.02,13.02 221.45,3.24 11.51,-338.64 -14.77,-616.58 -163.03,-924.61z"/>
   <path class="fil0" d="M5650.21 2691c29.61,6.83 182.1,-8.61 311.04,9.27 334.73,46.4 638.96,242.61 813.03,511.89 180.78,279.61 196.76,465.22 190.04,797l223.21 4.13c20.11,-349.21 -39.13,-646.57 -226.07,-924.01 -156.97,-232.99 -357.84,-404.84 -639.69,-521.94 -224.87,-93.44 -409.83,-107 -676.35,-95.53l4.79 219.19z"/>
   <path class="fil0" d="M5665.12 3127.38c315.12,-23.24 494.07,45.5 659.67,211.47 283.36,284.05 196.78,587.37 212.16,658.28l220.25 2.62c28.44,-506.3 -181.5,-870.22 -610.26,-1039.77 -179.06,-70.8 -289.04,-64.88 -490.54,-57.94l8.72 225.33z"/>
  </g>
 </g>
</svg>
