<?xml version="1.0" encoding="UTF-8"?>
<!DOCTYPE svg PUBLIC "-//W3C//DTD SVG 1.1//EN" "http://www.w3.org/Graphics/SVG/1.1/DTD/svg11.dtd">
<!-- Creator: CorelDRAW 2020 (64-Bit) -->
<svg xmlns="http://www.w3.org/2000/svg" xml:space="preserve" width="11.6929in" height="8.26772in" version="1.1" style="shape-rendering:geometricPrecision; text-rendering:geometricPrecision; image-rendering:optimizeQuality; fill-rule:evenodd; clip-rule:evenodd"
viewBox="0 0 11692.91 8267.72"
 xmlns:xlink="http://www.w3.org/1999/xlink"
 xmlns:xodm="http://www.corel.com/coreldraw/odm/2003">
 <defs>
  <style type="text/css">
   <![CDATA[
    .fil0 {fill:#96989A}
   ]]>
  </style>
 </defs>
 <g id="Layer_x0020_1">
  <metadata id="CorelCorpID_0Corel-Layer"/>
  <g id="_2268572501408">
   <path class="fil0" d="M1627.74 1366.3c-0.06,-0.26 0,-0.46 0.03,-0.73 0.04,-0.29 0.13,-1.16 0.3,-1.41 -0.04,-0.37 0.16,-0.92 0.28,-1.25 0.16,-0.61 0.79,-2.48 1.13,-2.78 0.04,-0.38 0.88,-1.71 1.11,-2.07 0.23,-0.36 0.41,-0.6 0.66,-0.94l0.51 -0.69c0.14,-0.15 0,-0.08 0.15,-0.11 0.13,-0.27 0.67,-0.93 0.98,-1.12 0.04,-0.11 -0.07,0.02 0.08,-0.15 0.12,-0.13 0.06,-0.06 0.14,-0.09 0.12,-0.25 0.31,-0.39 0.52,-0.59 0.21,-0.2 0.35,-0.35 0.61,-0.52 0.03,-0.18 0.12,-0.2 0.27,-0.23 0.11,-0.19 0.06,-0.12 0.23,-0.27 0.12,-0.11 0.15,-0.13 0.26,-0.21 0.23,-0.19 0.31,-0.27 0.57,-0.42 0.09,-0.2 0.96,-0.76 1.21,-0.93 0.34,-0.22 0.91,-0.67 1.3,-0.81l0.26 -0.15c0.14,-0.15 0.92,-0.59 1.17,-0.62 0.15,-0.17 0.39,-0.26 0.64,-0.38 0.57,-0.28 1.59,-0.77 2.15,-0.9 0.19,-0.14 0.9,-0.38 1.15,-0.38 0.13,-0.11 0.11,-0.09 0.31,-0.16 0.11,-0.04 0.24,-0.07 0.36,-0.11 0.62,-0.19 1.58,-0.48 2.17,-0.56 0.28,-0.11 0.75,-0.22 1.06,-0.18 0.02,-0.01 0.04,-0.02 0.05,-0.03l0.72 -0.16c0.29,-0.05 0.55,-0.09 0.83,-0.11 0.35,-0.08 0.85,-0.15 1.22,-0.09 0.34,-0.24 3.49,-0.18 4.11,-0.13l1.33 0.09 1.38 0.17c0.15,0.05 0.08,0.02 0.16,0.07 0.31,-0.06 0.75,0.06 1.05,0.13 0.25,0.02 1.25,0.18 1.47,0.35 0.38,-0.04 2.31,0.54 2.56,0.69 0.58,0.11 2.33,0.8 2.71,1.06 0.47,0.17 1.06,0.47 1.5,0.72l1.28 0.77c0.59,0.22 1.93,1.24 2.4,1.6 0.52,0.4 2.18,1.85 2.6,2.32l1.35 1.58c0.33,0.43 1.42,1.86 1.57,2.4 0.21,0.17 1.15,2.06 1.17,2.43 0.38,0.41 0.86,2.36 0.95,3.04 0.08,0.26 0.13,0.55 0.11,0.83 0.23,0.27 0.23,1.64 0.24,2.09l-0.01 1.2c-0.01,0.41 0.04,1.22 -0.17,1.51 0.03,0.28 -0.02,0.56 -0.08,0.82 -0.04,0.31 -0.19,1.24 -0.37,1.49 0.06,0.56 -0.64,1.95 -0.81,2.54 -0.3,0.64 -1.12,2.45 -1.53,2.74 -0.04,0.24 -0.13,0.29 -0.3,0.54 -0.07,0.09 -0.09,0.13 -0.17,0.24 -0.09,0.12 -0.05,0.11 -0.17,0.16 -0.1,0.25 -0.07,0.26 -0.3,0.39 -0.1,0.51 -3.15,3.57 -3.67,3.79 -0.07,0.13 0.04,0.08 -0.19,0.15l-0.24 0.24c-0.23,0.19 -0.63,0.54 -0.87,0.58 -0.19,0.32 -2.33,1.6 -2.84,1.77 -0.13,0.19 -2.4,1.23 -2.73,1.24 -0.11,0.1 -0,0.03 -0.17,0.12 -0.39,0.21 -2.28,0.78 -2.62,0.85 -0.19,0.11 -0.77,0.24 -1.01,0.22 -0.5,0.41 -4.59,0.79 -5.56,0.81l-1.36 0.05c-0.72,-0.01 -3.83,-0.04 -4.23,-0.33 -0.55,0.06 -1.91,-0.27 -2.5,-0.41l-1.32 -0.33c-0.5,-0.13 -2.39,-0.71 -2.61,-0.89 -0.58,-0.13 -0.82,-0.03 -1.44,0.01 -0.59,0.06 -1.05,0.02 -1.48,0.3 -0.23,0.15 -0.91,0.61 -1.11,0.65 -0.01,0.02 -0.03,0.03 -0.04,0.04l-2.23 1.45c-0.36,0.23 -1.97,1.29 -2.26,1.39 0.04,-0.67 0.19,-1.43 0.28,-2.1l0.33 -2.04c-0.06,-0.28 0.03,-0.77 0.09,-1.02 0.03,-0.37 0.08,-1.26 0.24,-1.48l-0.37 -1.21c-0.44,-0.98 -0.1,-0.87 -0.78,-1.54l-1.1 -1.17c-0.46,-0.51 -1.72,-2.02 -1.96,-2.69 -0.25,-0.15 -1.21,-2.1 -1.37,-2.57 -0.31,-0.5 -0.74,-1.97 -0.93,-2.67 -0.1,-0.37 -0.27,-0.89 -0.21,-1.26 -0.17,-0.23 -0.23,-1.17 -0.25,-1.44l-0.01 -0.59c-0.17,-0.25 -0.07,-1.63 -0.05,-2.07l0.11 -0.57zm19.74 -21.4c-0.35,0.09 -0.8,0.2 -1.15,0.17 -0.19,0.16 -1.32,0.37 -1.65,0.42l-2.31 0.66c-0.19,0.16 -1.38,0.57 -1.55,0.61 -0.07,0.06 -2.52,1.17 -2.6,1.18 -0.17,0.22 -0.46,0.3 -0.71,0.45 -0.26,0.15 -0.42,0.24 -0.67,0.38 -0.48,0.28 -0.96,0.65 -1.4,0.85l0 -0.02c-0.07,0.09 -0.02,0.04 -0.11,0.12l-1.2 0.83c-0.07,0.16 -0.06,0.11 -0.2,0.22 -0.02,0.01 -0.14,0.09 -0.16,0.1 -0.15,0.08 0.07,0.01 -0.13,0.06 -0.09,0.15 -0.18,0.22 -0.34,0.35 -0.15,0.11 -0.19,0.14 -0.33,0.27 -0.23,0.22 -0.4,0.36 -0.66,0.61 -0.45,0.43 -0.81,0.76 -1.24,1.22 -0.22,0.24 -0.4,0.42 -0.61,0.66l-1.65 2.03c-0.03,0.18 0.15,0.04 -0.1,0.17 -0.12,0.35 -0.61,1.02 -0.83,1.4 -0.15,0.27 -0.65,1.29 -0.81,1.4 -0.03,0.3 -0.6,1.47 -0.76,1.9 -0.78,2.13 -1.2,4.26 -1.26,6.59 -0.06,2.26 0.32,4.69 1.04,6.81 0.21,0.61 0.57,1.34 0.72,1.9l0.65 1.31c0.37,0.74 0.76,1.36 1.19,2 0.17,0.25 1.3,1.73 1.34,1.9 0.25,0.13 0.15,0.06 0.24,0.28l0.97 1.08c0.22,0.11 0.19,0.11 0.35,0.29 0.11,0.11 0.16,0.15 0.27,0.26 0.34,0.31 0.23,0.37 0.17,0.93l-0.54 3.94c-0.05,0.42 -0.05,1.16 -0.24,1.46 0.05,0.32 -0.04,0.75 -0.1,1.07 -0.04,0.44 -0.09,1.55 -0.3,1.86 0.09,0.56 -0.34,2.5 -0.37,3.26l0.73 -0.46c0.19,-0.12 0.09,-0.08 0.27,-0.11 0.16,-0.23 1.01,-0.72 1.31,-0.91 0.31,-0.19 1.15,-0.79 1.44,-0.83 0.12,-0.23 1.14,-0.83 1.34,-0.89 0.19,-0.26 0.91,-0.62 1.25,-0.83 0.23,-0.15 0.43,-0.27 0.65,-0.42 0.22,-0.15 0.43,-0.33 0.68,-0.37 0.13,-0.19 0.11,-0.16 0.35,-0.25 0.05,-0.07 -0.01,-0.02 0.11,-0.11 0,0 0.11,-0.07 0.12,-0.07 0.1,-0.07 0.13,-0.08 0.25,-0.16 0.19,-0.13 0.33,-0.26 0.53,-0.29l0.11 -0.12c0.01,-0.01 0.03,-0.02 0.04,-0.03 0.07,-0.05 0.05,-0.04 0.12,-0.08 0.11,-0.07 0.17,-0.11 0.28,-0.18 0.66,-0.43 0.78,-0.63 1.2,-0.48 0.21,0.07 0.46,0.15 0.61,0.3l0.37 0.09c0.33,0.08 1.34,0.35 1.52,0.52 0.3,-0.01 0.91,0.19 1.16,0.26l2.65 0.56 0.97 0.14 1.7 0.17 1.35 0.08 2.2 0.01 0.53 -0.02 1.52 -0.1c0.28,-0.04 0.59,-0.09 0.87,-0.05 0.27,-0.17 1.31,-0.24 1.72,-0.28l2.33 -0.45c0.01,-0.01 0.03,-0.02 0.04,-0.03l1.62 -0.47c0.21,-0.12 0.74,-0.29 1,-0.3l3.13 -1.31c0.09,-0.14 0.98,-0.51 1.21,-0.64 0.23,-0.13 1.06,-0.63 1.24,-0.65l0.07 -0.08c0.01,-0.01 0.03,-0.03 0.04,-0.04l0.2 -0.14c1.97,-1.22 2.24,-1.59 3.92,-2.94l1.57 -1.55c1.01,-1.17 1.68,-1.95 2.52,-3.27 0.04,-0.06 0.06,-0.09 0.11,-0.16 0.08,-0.1 0.02,-0.04 0.11,-0.12 0.02,-0.15 0.83,-1.55 1,-1.89 1.83,-3.72 2.52,-7.94 1.87,-12.1 -0.12,-0.8 -0.29,-1.56 -0.51,-2.33 -0.13,-0.46 -0.69,-1.89 -0.68,-2.15 -0.01,-0.02 -0.03,-0.04 -0.03,-0.04 -0.01,-0.01 -0.02,-0.03 -0.03,-0.04 -0.01,-0.02 -0.05,-0.07 -0.06,-0.09 -0.02,-0.05 -0.06,-0.13 -0.09,-0.19l-0.48 -1.11c-0.05,-0.04 -1,-1.74 -1.15,-1.98 -0.23,-0.37 -0.39,-0.61 -0.64,-0.96 -0.19,-0.27 -0.58,-0.69 -0.63,-0.94 -0.22,-0.12 -0.26,-0.23 -0.4,-0.44 -0.12,-0.11 -0.25,-0.27 -0.4,-0.44 -0.13,-0.15 -0.26,-0.29 -0.32,-0.46 -0.27,-0.11 -0.48,-0.38 -0.59,-0.6l-0.69 -0.69c-0.21,-0.1 -0.24,-0.14 -0.4,-0.3 -0.06,-0.07 -0.12,-0.12 -0.16,-0.17 -0.12,-0.14 -0.04,-0.02 -0.13,-0.17 -0.14,-0.04 -0.09,-0.01 -0.24,-0.13 -0.09,-0.07 -0.12,-0.13 -0.2,-0.2 -0.19,-0.17 -0.26,-0.14 -0.39,-0.37 -0.19,-0.07 -0.17,-0.03 -0.38,-0.27l-0.06 -0.09c-0.19,-0.04 -0.81,-0.54 -0.97,-0.66l-2.89 -1.84c-0.47,-0.15 -0.97,-0.49 -1.48,-0.71 -0.46,-0.2 -1.03,-0.44 -1.47,-0.66l-1.24 -0.5 -2.66 -0.81c-0.17,-0.07 -0.06,-0.02 -0.14,-0.07 -0.32,0.02 -0.89,-0.13 -1.2,-0.24 -0.32,-0.04 -1.59,-0.22 -1.78,-0.36 -0.37,0.04 -0.68,-0.1 -0.99,-0.07 -1.28,-0.27 -3.44,-0.28 -4.82,-0.26 -1.63,0.04 -3.04,0.25 -4.59,0.42z"/>
   <path class="fil0" d="M1664.95 1363.94c-0.12,0.18 -0.32,0.29 -0.48,0.4 -0.16,0.15 -0.3,0.29 -0.45,0.47 -0.14,0.17 -0.23,0.36 -0.35,0.48 -0.04,0.12 -0.06,0.19 -0.11,0.28 -0.01,0.02 -0.02,0.04 -0.02,0.05l-0.1 0.13 -0.12 0.7c-0.02,0.38 -0.03,0.65 0.04,1.03 0.06,0.33 0.19,0.53 0.2,0.8 0.16,0.1 0.37,0.51 0.5,0.68 0.2,0.27 0.51,0.41 0.64,0.65 0.15,0.02 0.09,-0.04 0.18,0.09 0.81,0.28 0.93,0.44 1.96,0.42l0.84 -0.13c0.22,-0.2 0.96,-0.41 1.54,-1.23 0.13,-0.19 0.2,-0.43 0.38,-0.56 0.01,-0.33 0.2,-0.75 0.22,-1.22 -0,-0.67 -0.13,-0.92 -0.26,-1.46 -0.25,-0.23 -0.26,-0.74 -1.17,-1.36 -0.14,-0.09 -0.39,-0.19 -0.5,-0.31 -0.54,-0.15 -0.8,-0.26 -1.44,-0.26 -0.71,0.02 -1.12,0.32 -1.52,0.35z"/>
   <path class="fil0" d="M1639.5 1363.79c-0.13,0.11 -0.37,0.18 -0.56,0.3 -0.2,0.13 -0.35,0.26 -0.52,0.41 -0.4,0.39 -0.46,0.56 -0.76,1.09 -0.19,0.71 -0.26,0.82 -0.22,1.65l0.17 0.86 0.22 0.34c0.7,1.24 1.5,1.28 1.78,1.56l0.74 0.11c1.03,0.04 1.09,-0.13 1.9,-0.35 0.13,-0.15 0.12,-0.14 0.3,-0.16l0.1 -0.13c0.01,-0.01 0.02,-0.03 0.03,-0.04 0.29,-0.3 0.22,-0.11 0.65,-0.68 0.04,-0.06 0.06,-0.09 0.12,-0.16 0.07,-0.08 0.05,-0.06 0.12,-0.12l0.09 -0.22c0.21,-0.74 0.32,-0.91 0.27,-1.78l-0.14 -0.8c-0.15,-0.13 -0.22,-0.37 -0.33,-0.54 -0.45,-0.74 -1.16,-1.08 -1.3,-1.25 -0.34,-0.03 -0.74,-0.25 -1.28,-0.29 -0.6,-0.02 -0.85,0.06 -1.39,0.2z"/>
   <path class="fil0" d="M1652.92 1363.66c-0.57,0.17 -1.03,0.39 -1.41,0.69 -0.2,0.16 -0.37,0.37 -0.51,0.56 -0.1,0.14 -0.35,0.57 -0.39,0.6 -0.3,1.17 -0.42,2 0.21,3.04 0.35,0.57 0.89,1.04 1.49,1.3l0.69 0.27 0.32 -0c2.19,0.05 3.66,-1.43 3.54,-3.67 -0.09,-0.46 -0.21,-0.85 -0.41,-1.2 -0.22,-0.39 -0.54,-0.64 -0.72,-0.91 -0.16,-0.07 -0.03,0.02 -0.19,-0.11 -0.09,-0.07 -0.04,-0.04 -0.1,-0.13 -0.01,-0 -0.98,-0.38 -1.12,-0.44 -0.59,-0.07 -0.82,-0.08 -1.41,0z"/>
  </g>
  <g id="_2268572501168">
   <path class="fil0" d="M3990.42 3432.42c-4.69,-20.61 0.04,-37.46 2.56,-58.69 3.22,-23.42 10.93,-93 24.24,-112.88 -3.33,-30.2 12.87,-73.92 22.35,-100.74 12.67,-48.87 63.68,-199.24 91.07,-222.91 2.95,-30.78 70.94,-137.68 89,-166.3 18.44,-29.23 32.67,-47.95 52.82,-75.56l41.09 -55.41c11.57,-12.41 0.03,-6.26 11.87,-8.68 10.32,-21.69 54.06,-74.78 78.94,-89.63 3.33,-9.08 -5.11,1.34 6.8,-12.29 9.33,-10.68 4.75,-4.93 11.03,-7.48 9.84,-20.08 25.28,-31.59 41.54,-47.08 17.05,-16.23 28.24,-28.67 49.44,-41.45 2.24,-14.63 9.32,-15.93 21.71,-18.67 8.41,-15.29 5.02,-9.56 18.33,-21.62 9.53,-8.63 11.81,-9.97 20.46,-16.87 18.52,-14.8 25.14,-21.86 46.46,-33.49 6.68,-16.32 76.73,-60.65 97.07,-74.15 27.44,-18.22 73.22,-53.84 104.07,-65.31l20.67 -11.85c10.92,-12.18 73.88,-47.51 94.07,-49.9 12.43,-13.97 31.67,-21.05 51.6,-30.51 46.33,-21.99 128.19,-61.81 172.68,-72.41 14.91,-11.23 72.36,-30.35 91.91,-30.63 10.05,-8.98 9.28,-7.74 25.31,-12.96 8.79,-2.86 19.83,-5.88 29,-8.78 49.43,-15.63 127.09,-38.39 174.67,-45.15 22.45,-9.07 60.11,-17.5 84.83,-14.24 1.23,-0.82 2.98,-1.61 3.93,-2.03l58.21 -13.1c23.13,-3.77 44.31,-6.81 66.95,-8.85 28.35,-6.48 68.52,-12 98.37,-7.53 27.45,-19.01 280.41,-14.09 330.45,-10.91l106.96 7.37 110.49 13.32c12.59,3.72 6.43,1.47 12.78,5.48 25.25,-5.13 60.07,4.28 84.4,10.06 20.22,2.02 100.59,14.61 118.58,27.72 30.73,-2.59 185.98,43.01 205.21,55.13 46.45,9.39 187.17,63.85 217.78,84.99 37.73,13.29 84.83,37.68 120.15,57.7l103.06 61.88c47,17.17 155.39,99.46 193.06,128.63 41.34,32.01 174.9,148.92 208.79,186.94l108.19 127.01c26.14,34.25 113.93,149.9 126.66,192.71 16.89,13.29 91.93,165.79 93.72,195.7 30.61,32.83 69.06,189.9 76.32,244.73 6.53,20.72 10.76,44.08 9.16,66.86 18.14,22.03 18.55,132.02 19.49,168.45l-0.6 96.32c-0.84,32.94 3.49,98.01 -13.35,121.2 2.31,22.37 -1.5,44.41 -6.56,66.1 -2.99,25.37 -14.91,99.29 -30.04,119.5 5.03,45.43 -51.42,156.61 -65.58,204.39 -23.75,51.31 -89.98,197.14 -123.09,220.27 -3.02,19.11 -10.07,23.46 -24.23,43.69 -5.46,7.79 -6.86,10.52 -13.25,19.22 -7.26,9.88 -4.12,9.26 -13.15,13.2 -8.38,19.74 -5.62,20.75 -24.35,31.18 -8.43,41.25 -252.86,286.77 -294.62,304.82 -5.72,10.53 3.37,6.35 -15.58,12.09l-19.51 19.66c-18.44,14.65 -50.84,43.17 -70.31,46.24 -15.01,26 -187.28,128.56 -228.13,142.7 -10.58,15.24 -193.2,98.9 -219.41,99.09 -8.7,8.14 -0.32,2.24 -13.8,9.51 -31.86,17.19 -182.9,62.95 -210.68,68.36 -15.48,8.51 -61.43,19.44 -81.17,18.22 -40,33.04 -369.01,63.51 -446.42,65.48l-109.22 4c-57.55,-0.59 -307.72,-3.37 -339.94,-26.54 -44.12,4.35 -153.61,-21.38 -200.83,-33.09l-106.36 -26.56c-40.22,-10.93 -192.27,-56.98 -210.25,-71.33 -46.79,-10.5 -66.16,-2.39 -115.6,0.8 -47.22,5.22 -84.33,1.46 -118.63,24.36 -18.55,12.39 -72.79,49.64 -89.26,52.42 -0.95,1.08 -2.28,2.46 -2.98,3.14l-179.3 116.64c-28.91,18.49 -158.44,103.77 -181.69,111.87 3.19,-53.74 14.87,-114.71 22.39,-168.79l26.69 -163.57c-4.24,-22.53 2.75,-61.81 7.68,-81.65 2.61,-29.3 6.24,-100.85 19.7,-119.04l-30.09 -97.08c-35.78,-79.07 -8.35,-70.06 -62.76,-123.7l-88.4 -93.54c-36.89,-41.38 -137.72,-162.16 -157.58,-216.6 -19.96,-11.68 -96.93,-168.6 -110.19,-207.06 -25.36,-39.69 -59.32,-158.11 -74.38,-214.81 -8.18,-29.27 -22.07,-71.37 -17.31,-101.54 -13.15,-18.81 -18.22,-94.24 -19.91,-116.04l-0.59 -47.24c-13.59,-20.24 -5.95,-131.25 -3.92,-166.87l8.24 -46.05zm1587.1 -1720.41c-28.35,7.28 -64.21,16.01 -92.46,13.36 -15.07,12.64 -105.81,29.3 -132.17,33.56l-185.5 52.72c-14.63,12.97 -110.78,45.69 -124.69,48.89 -5.22,4.59 -202.79,93.87 -208.98,94.61 -14.18,17.42 -37.32,24.08 -57.22,35.9 -20.81,12.35 -33.96,19.02 -54.36,30.94 -38.59,22.55 -76.86,52.41 -112.63,68.53l0.4 -1.64c-5.27,7.13 -1.99,3.4 -8.48,9.65l-96.98 67.07c-6,12.74 -4.69,8.91 -16.55,17.8 -1.63,1.22 -11.2,7.39 -12.72,8.2 -12.14,6.52 5.19,0.47 -10.26,4.15 -7.74,12.25 -14.15,17.96 -27.28,28.29 -11.63,9.15 -15.24,11.19 -26.46,21.72 -18.76,17.61 -32.13,29 -52.85,48.79 -36.5,34.85 -64.8,61.26 -99.39,98.64 -17.94,19.38 -31.85,33.68 -48.63,52.93l-132.92 163c-2.56,14.55 12.25,2.82 -8.33,13.5 -9.8,27.93 -48.84,81.66 -66.76,112.64 -12.39,21.43 -52.33,103.21 -64.77,112.19 -2.5,23.73 -48.44,118.37 -60.96,152.92 -62.13,171.5 -96.8,342.2 -101.22,529.39 -4.29,181.79 26.04,377.17 83.97,547.37 16.65,48.93 45.36,107.91 57.88,153.13l52.44 105.13c29.49,59.2 61.48,109.15 95.69,160.99 13.32,20.19 103.99,138.7 107.85,152.81 19.83,10.07 12.45,4.37 19.68,22.44l77.65 86.7c17.59,8.72 14.88,9.01 28.41,23.33 8.66,9.17 12.69,12.48 21.81,20.85 27.52,25.22 18.34,29.92 13.12,74.52l-43.55 316.3c-3.8,33.85 -3.94,93.26 -19.59,117.04 3.84,26.2 -2.9,60.55 -8.39,85.93 -3.19,35.42 -7.19,124.54 -23.55,149.68 7.28,44.84 -27.26,200.58 -29.96,261.78l58.92 -36.71c15.7,-9.46 7.15,-6.33 21.8,-8.48 13.14,-18.86 81.54,-58.31 105.28,-73 24.64,-15.24 91.87,-63.55 115.63,-66.64 9.72,-18.73 91.77,-66.52 107.58,-71.8 15.27,-20.54 73.59,-49.72 100.35,-67.22 18.63,-12.18 34.89,-21.78 52.16,-33.49 18.13,-12.3 34.89,-26.5 54.49,-29.8 10.06,-15.37 9.09,-12.54 28.05,-19.78 3.64,-5.48 -0.73,-1.7 8.76,-8.96 0.19,-0.15 8.48,-5.39 9.62,-6.09 8.39,-5.2 10.6,-6.28 19.94,-12.5 15.6,-10.37 27.01,-21.04 42.91,-23.42l9.13 -9.46c0.95,-0.83 2.18,-1.84 3.17,-2.65 5.3,-4.28 3.98,-2.81 9.71,-6.64 8.64,-5.77 13.78,-9.2 22.48,-14.75 53.16,-33.87 62.75,-50.06 96.37,-38.45 16.61,5.74 36.51,12.46 48.95,23.57l29.3 6.97c26.91,6.68 107.59,28.6 122.08,42.13 24.3,-0.57 72.84,14.98 93.21,21.32l212.63 44.61 77.9 11.14 136.6 13.86 108.57 6.39 177.15 0.89 42.39 -1.28 122.04 -7.92c22.77,-3.39 47.73,-7.36 70.21,-3.94 21.95,-14.21 105.69,-19.25 138.37,-22.96l186.89 -36.01c1.11,-0.82 2.68,-1.8 3.48,-2.24l130.51 -38c17.18,-9.97 59.83,-23.47 80.41,-23.68l251.18 -105.1c7.51,-11.47 79.22,-41.09 97.06,-51.35 18.61,-10.7 84.87,-50.7 99.52,-52.5l6.01 -6.4c0.86,-0.81 2.09,-2.1 3.06,-2.96l16.02 -11.52c158.44,-98.45 179.75,-127.46 314.72,-236.1l126.56 -124.62c81.34,-94.38 134.84,-157.04 202.47,-262.68 3.3,-5.16 4.53,-7.5 9.19,-13.1 6.73,-8.09 1.93,-3.22 9.41,-9.33 1.66,-11.96 66.74,-124.84 80.09,-151.97 147.32,-299.28 202.47,-637.85 149.98,-972.43 -10.01,-63.81 -23.65,-125.05 -41.18,-187.26 -10.37,-36.83 -55.19,-151.85 -54.87,-173.03 -0.96,-1.06 -2.07,-2.61 -2.62,-3.4 -0.55,-0.78 -1.89,-2.43 -2.53,-3.41 -0.81,-1.23 -3.62,-5.6 -4.45,-7.06 -2.17,-3.8 -5.05,-10.54 -6.96,-14.74l-38.55 -89.3c-3.7,-3.08 -80.24,-140.05 -92.29,-159.3 -18.31,-29.23 -31.43,-48.85 -51.6,-76.78 -15.56,-21.54 -46.59,-55.61 -50.93,-75.94 -17.39,-9.37 -21.14,-18.75 -32.18,-35.06 -10.02,-8.84 -20.13,-21.69 -32.26,-35.56 -10.85,-12.41 -20.87,-23.4 -25.98,-37.04 -21.78,-8.85 -38.66,-30.78 -47.14,-48.3l-55.76 -55.44c-16.89,-7.85 -19.75,-11.24 -32.27,-24.51 -5.08,-5.38 -9.44,-9.86 -12.82,-13.82 -9.59,-11.24 -3.07,-1.6 -10.26,-13.6 -11.29,-3.33 -7.34,-0.52 -19.14,-10.44 -6.93,-5.83 -9.79,-10.4 -16.24,-15.91 -15.3,-13.07 -21.18,-11.48 -31.36,-29.91 -14.99,-5.43 -13.89,-2.4 -30.48,-21.79l-5.21 -6.94c-14.69,-3.54 -64.8,-43.38 -77.86,-53.19l-232.18 -147.81c-37.6,-12.48 -78.24,-39.26 -118.91,-57.17 -37.04,-16.31 -83.09,-35.13 -118,-52.84l-100.02 -39.73 -213.66 -64.77c-13.56,-5.86 -4.97,-1.6 -11.05,-6.25 -25.77,1.94 -71.83,-10.44 -96.18,-19.11 -26.06,-3.51 -127.56,-17.52 -142.77,-29.36 -29.37,3.58 -54.7,-8.01 -79.53,-5.39 -102.41,-21.63 -276.65,-22.73 -387.36,-20.38 -131.21,2.79 -243.74,19.88 -368.99,33.78z"/>
   <path class="fil0" d="M6981.85 3243.29c-9.51,14.34 -26.08,23.64 -39.15,31.99 -12.47,12.52 -24.2,23.33 -36.37,37.75 -11.11,13.18 -18.19,28.93 -28.05,38.35 -3.04,9.64 -4.78,15.13 -8.44,22.13 -0.65,1.25 -1.55,2.67 -2.17,3.76l-7.81 10.58 -9.72 56.39c-1.42,30.55 -2.43,52.48 3.36,82.98 4.99,26.32 15.13,42.48 15.77,64.71 12.73,7.94 30.28,41.1 40.67,54.72 16.52,21.65 40.98,32.8 51.4,51.91 12.07,1.7 7.43,-3.28 14.28,7.34 65.65,22.22 74.7,35.37 158.16,33.77l67.46 -10.73c17.76,-16.57 77.22,-32.64 123.79,-98.87 10.46,-14.88 16.34,-34.03 30.75,-44.88 0.95,-26.79 15.86,-60.48 18.12,-98.2 -0.37,-53.39 -10.09,-73.66 -20.85,-117.61 -20.2,-18.37 -20.65,-59.66 -93.91,-109.33 -10.96,-7.43 -31.57,-15.3 -39.79,-24.41 -43.7,-11.87 -63.92,-20.93 -115.44,-20.66 -57.23,1.76 -90.04,25.81 -122.05,28.34z"/>
   <path class="fil0" d="M4935.74 3230.89c-10.71,8.76 -29.91,14.57 -44.71,24.17 -16.74,10.86 -28.59,20.48 -41.63,33.34 -31.88,31.45 -37.04,45.11 -61.14,87.54 -14.72,57.02 -20.61,66.19 -18.02,132.41l13.87 69.26 18.11 27.03c56.1,100.05 121.01,103.22 143.09,125.47l59.96 9.17c82.63,2.73 87.31,-10.02 152.37,-28.54 10.33,-12.29 9.83,-10.93 23.82,-12.8l8.02 -10.29c0.82,-0.91 1.92,-2.07 2.79,-2.96 23.3,-23.68 17.69,-8.75 52.29,-54.33 3.67,-4.83 4.96,-7.25 9.61,-12.68 5.65,-6.59 3.72,-4.42 9.46,-9.41l7.05 -17.81c16.66,-59.06 25.91,-73.28 21.96,-143.42l-11.7 -64.56c-12.22,-10.32 -17.93,-29.7 -26.26,-43.49 -36.2,-59.93 -92.77,-86.7 -104.19,-100.41 -27.59,-2.51 -59.63,-19.76 -103.13,-23.35 -48.51,-1.31 -68.78,4.93 -111.62,15.66z"/>
   <path class="fil0" d="M6014.7 3220.43c-46.35,13.15 -82.81,31.34 -113.27,55.69 -16.2,12.94 -30.04,29.46 -41.01,44.68 -8.06,11.18 -27.65,45.69 -30.98,48.56 -24.07,93.94 -33.94,160.62 17.21,244.27 27.96,45.74 71.45,83.32 120.01,104.4l55.53 21.89 25.96 -0.33c176.4,4.02 294.44,-114.44 284.39,-295.36 -7.26,-36.49 -16.54,-68.6 -32.68,-96.56 -18.12,-31.41 -43.43,-51.44 -58.17,-73.24 -12.68,-6.09 -2.28,1.54 -15.02,-9.23 -7.1,-5.99 -3.01,-2.77 -8.37,-10.17 -0.66,-0.11 -78.83,-30.45 -89.98,-35.14 -47.5,-5.93 -65.89,-6.39 -113.61,0.54z"/>
  </g>
 </g>
</svg>
