<?xml version="1.0" encoding="UTF-8"?>
<!DOCTYPE svg PUBLIC "-//W3C//DTD SVG 1.1//EN" "http://www.w3.org/Graphics/SVG/1.1/DTD/svg11.dtd">
<!-- Creator: CorelDRAW 2020 (64-Bit) -->
<svg xmlns="http://www.w3.org/2000/svg" xml:space="preserve" width="11.6929in" height="8.26772in" version="1.1" style="shape-rendering:geometricPrecision; text-rendering:geometricPrecision; image-rendering:optimizeQuality; fill-rule:evenodd; clip-rule:evenodd"
viewBox="0 0 11692.91 8267.72"
 xmlns:xlink="http://www.w3.org/1999/xlink"
 xmlns:xodm="http://www.corel.com/coreldraw/odm/2003">
 <defs>
  <style type="text/css">
   <![CDATA[
    .str0 {stroke:#96989A;stroke-width:4.17;stroke-miterlimit:2.61313}
    .fil0 {fill:none}
   ]]>
  </style>
 </defs>
 <g id="Layer_x0020_1">
  <metadata id="CorelCorpID_0Corel-Layer"/>
  <path class="fil0 str0" d="M5642.73 2418.84c-116.13,-113.85 -227.94,-228.67 -344.51,-344.35 -110.63,-109.78 -225.49,-205.63 -397.19,-294.41 -330.58,-170.93 -773.72,-194.87 -1138.46,-50.31 -86.88,34.43 -158.15,74.08 -231.62,117.37 -38.58,22.73 -166.78,116.06 -195.95,146.96 -66.58,70.52 -112.14,109.16 -166.79,181.99 -48.88,65.15 -90.65,127.87 -133.91,209.23 -177.41,333.64 -209.67,763.43 -70.07,1139.47 53.71,144.67 128.16,272.01 220.78,386.91 47.07,58.4 47.7,52.09 83.26,91.22 123.26,135.62 336.34,344.8 470.27,480.22l946.06 954.64c29.33,29.85 60.72,53.84 90.35,84.16 58.04,59.38 111.89,113.43 169.8,172.83 115.35,118.32 227.55,230.44 342.9,348.88 65.96,67.74 288.52,302.64 348.61,344.51 46.71,-38.52 286.19,-284.95 350.37,-349.22l2072.96 -2077.36c97.26,-112.5 194.22,-257.56 259.62,-432.36 172.59,-461.29 88.79,-986.6 -205.15,-1356.2l-79.45 -95.4c-42.31,-36.3 -67.62,-70 -83.79,-83.96 -18.84,-16.27 -28.44,-20.85 -50.23,-40.5l-150.38 -108.27c-404.55,-253.95 -953.74,-280.17 -1366.22,-65 -339.81,177.26 -485.55,403.72 -741.28,638.94z"/>
 </g>
</svg>
