<?xml version="1.0" encoding="UTF-8"?>
<!DOCTYPE svg PUBLIC "-//W3C//DTD SVG 1.1//EN" "http://www.w3.org/Graphics/SVG/1.1/DTD/svg11.dtd">
<!-- Creator: CorelDRAW 2020 (64-Bit) -->
<svg xmlns="http://www.w3.org/2000/svg" xml:space="preserve" width="11.6929in" height="8.26772in" version="1.1" style="shape-rendering:geometricPrecision; text-rendering:geometricPrecision; image-rendering:optimizeQuality; fill-rule:evenodd; clip-rule:evenodd"
viewBox="0 0 11692.91 8267.72"
 xmlns:xlink="http://www.w3.org/1999/xlink"
 xmlns:xodm="http://www.corel.com/coreldraw/odm/2003">
 <defs>
  <style type="text/css">
   <![CDATA[
    .fil0 {fill:#96989A}
   ]]>
  </style>
 </defs>
 <g id="Layer_x0020_1">
  <metadata id="CorelCorpID_0Corel-Layer"/>
  <path class="fil0" d="M6777.2 4411c379.17,-91.31 685.89,164.62 755.28,455.38 92.03,386.2 -166.54,693.4 -461.05,763.98 -811.91,194.65 -1107.3,-1023.59 -294.23,-1219.35zm-2599.11 -1165.09c801.77,-218.28 1097.19,1014.89 308.39,1216.09 -789.01,201.31 -1145.54,-988.23 -308.39,-1216.09zm2527.8 -1558.17c801.11,-198.77 1087,1032.45 279.16,1223.12 -775.49,182.98 -1133.8,-1011.04 -279.16,-1223.12zm-619.08 1232.28c106.21,61.85 62.59,86.81 261.45,210.07 795.87,493.45 1845.82,-417.05 1332.44,-1314.28 -383.98,-671.06 -1383.44,-635.84 -1711.04,60.52 -133.97,284.86 -99.8,446.45 -44.88,745.99l-930.88 520.53c-46.13,-22.49 -69.75,-53.37 -114.93,-84.07 -112.79,-76.69 -237.9,-131.46 -380.3,-157.5 -215.91,-39.43 -452.79,3.83 -619.82,92.86 -767.53,409.01 -641.32,1505.9 120.9,1768.16 618.96,212.97 939.68,-193.1 1066.19,-262.41l897.46 361.1c-12.48,305.96 21.69,532.81 179.52,732.41 127.84,161.72 283.37,298.13 547.94,364.28 559.51,139.8 1005.79,-228.31 1139.7,-606.85 367.39,-1038.21 -1041.91,-1866.33 -1748.75,-816.02l-842.46 -336.74c62.15,-387.83 105.93,-347.39 -41.71,-776.99l889.19 -501.04z"/>
 </g>
</svg>
